# xmcd CD database file
#
# Track frame offsets:
#	183
#	27360
#	56805
#	86773
#	124948
#	162000
#
# Disc length: 2784 seconds
#
# Revision: 0
# Processed by: cddbd v1.4PL0 Copyright (c) Steve Scherf et al.
# Submitted via: CDex 1.50Beta5
#
DISCID=4a0ade06
DTITLE=Dexter Gordon - Lullaby for a Monster
DYEAR=1976
DGENRE=Jazz
TTITLE0=Nursery Blues
TTITLE1=Lullaby for a Monster
TTITLE2=On Green Dolphin Street
TTITLE3=Good Bait
TTITLE4=Born to be Blue
TTITLE5=Tanya
EXTD=YEAR: 1976
EXTT0=
EXTT1=
EXTT2=
EXTT3=
EXTT4=
EXTT5=
PLAYORDER=
